<mxfile host="app.diagrams.net" modified="2023-08-25T16:24:46.036Z" agent="Mozilla/5.0 (X11; Linux x86_64; rv:109.0) Gecko/20100101 Firefox/111.0" etag="1Za3vFyzMoO-Hyk0nMxa" version="21.6.9" type="github">
  <diagram id="R2lEEEUBdFMjLlhIrx00" name="Page-1">
    <mxGraphModel dx="1434" dy="718" grid="1" gridSize="10" guides="1" tooltips="1" connect="1" arrows="1" fold="1" page="1" pageScale="1" pageWidth="850" pageHeight="1100" math="0" shadow="0" extFonts="Permanent Marker^https://fonts.googleapis.com/css?family=Permanent+Marker">
      <root>
        <mxCell id="0" />
        <mxCell id="1" parent="0" />
        <mxCell id="KHuX0e-AmjDHZb3JDBsN-6" style="edgeStyle=orthogonalEdgeStyle;rounded=0;orthogonalLoop=1;jettySize=auto;html=1;entryX=0;entryY=0.5;entryDx=0;entryDy=0;" edge="1" parent="1" source="KHuX0e-AmjDHZb3JDBsN-1" target="KHuX0e-AmjDHZb3JDBsN-5">
          <mxGeometry relative="1" as="geometry" />
        </mxCell>
        <mxCell id="KHuX0e-AmjDHZb3JDBsN-11" style="edgeStyle=orthogonalEdgeStyle;rounded=0;orthogonalLoop=1;jettySize=auto;html=1;exitX=0.5;exitY=1;exitDx=0;exitDy=0;entryX=0.5;entryY=0;entryDx=0;entryDy=0;" edge="1" parent="1" source="KHuX0e-AmjDHZb3JDBsN-1" target="KHuX0e-AmjDHZb3JDBsN-10">
          <mxGeometry relative="1" as="geometry" />
        </mxCell>
        <mxCell id="KHuX0e-AmjDHZb3JDBsN-1" value="Funcionários" style="swimlane;childLayout=stackLayout;horizontal=1;startSize=50;horizontalStack=0;rounded=1;fontSize=14;fontStyle=0;strokeWidth=2;resizeParent=0;resizeLast=1;shadow=0;dashed=0;align=center;arcSize=4;whiteSpace=wrap;html=1;" vertex="1" parent="1">
          <mxGeometry x="20" y="10" width="160" height="120" as="geometry" />
        </mxCell>
        <mxCell id="KHuX0e-AmjDHZb3JDBsN-4" value="Departamento" style="swimlane;childLayout=stackLayout;horizontal=1;startSize=50;horizontalStack=0;rounded=1;fontSize=14;fontStyle=0;strokeWidth=2;resizeParent=0;resizeLast=1;shadow=0;dashed=0;align=center;arcSize=4;whiteSpace=wrap;html=1;" vertex="1" parent="1">
          <mxGeometry x="450" y="10" width="160" height="120" as="geometry" />
        </mxCell>
        <mxCell id="KHuX0e-AmjDHZb3JDBsN-8" style="edgeStyle=orthogonalEdgeStyle;rounded=0;orthogonalLoop=1;jettySize=auto;html=1;entryX=0;entryY=0.5;entryDx=0;entryDy=0;" edge="1" parent="1" source="KHuX0e-AmjDHZb3JDBsN-5" target="KHuX0e-AmjDHZb3JDBsN-4">
          <mxGeometry relative="1" as="geometry" />
        </mxCell>
        <mxCell id="KHuX0e-AmjDHZb3JDBsN-5" value="Alocado" style="shape=rhombus;double=1;perimeter=rhombusPerimeter;whiteSpace=wrap;html=1;align=center;" vertex="1" parent="1">
          <mxGeometry x="250" y="40" width="120" height="60" as="geometry" />
        </mxCell>
        <mxCell id="KHuX0e-AmjDHZb3JDBsN-7" value="n" style="text;html=1;align=center;verticalAlign=middle;resizable=0;points=[];autosize=1;strokeColor=none;fillColor=none;" vertex="1" parent="1">
          <mxGeometry x="175" y="48" width="30" height="30" as="geometry" />
        </mxCell>
        <mxCell id="KHuX0e-AmjDHZb3JDBsN-9" value="&lt;div&gt;1&lt;br&gt;&lt;/div&gt;" style="text;html=1;align=center;verticalAlign=middle;resizable=0;points=[];autosize=1;strokeColor=none;fillColor=none;" vertex="1" parent="1">
          <mxGeometry x="415" y="48" width="30" height="30" as="geometry" />
        </mxCell>
        <mxCell id="KHuX0e-AmjDHZb3JDBsN-13" style="edgeStyle=orthogonalEdgeStyle;rounded=0;orthogonalLoop=1;jettySize=auto;html=1;exitX=0.5;exitY=1;exitDx=0;exitDy=0;entryX=0.5;entryY=0;entryDx=0;entryDy=0;" edge="1" parent="1" source="KHuX0e-AmjDHZb3JDBsN-10" target="KHuX0e-AmjDHZb3JDBsN-12">
          <mxGeometry relative="1" as="geometry" />
        </mxCell>
        <mxCell id="KHuX0e-AmjDHZb3JDBsN-10" value="Pertence" style="shape=rhombus;double=1;perimeter=rhombusPerimeter;whiteSpace=wrap;html=1;align=center;" vertex="1" parent="1">
          <mxGeometry x="40" y="210" width="120" height="60" as="geometry" />
        </mxCell>
        <mxCell id="KHuX0e-AmjDHZb3JDBsN-18" style="edgeStyle=orthogonalEdgeStyle;rounded=0;orthogonalLoop=1;jettySize=auto;html=1;exitX=1;exitY=0.5;exitDx=0;exitDy=0;entryX=0;entryY=0.5;entryDx=0;entryDy=0;" edge="1" parent="1" source="KHuX0e-AmjDHZb3JDBsN-12" target="KHuX0e-AmjDHZb3JDBsN-14">
          <mxGeometry relative="1" as="geometry" />
        </mxCell>
        <mxCell id="KHuX0e-AmjDHZb3JDBsN-12" value="Projetos" style="swimlane;childLayout=stackLayout;horizontal=1;startSize=50;horizontalStack=0;rounded=1;fontSize=14;fontStyle=0;strokeWidth=2;resizeParent=0;resizeLast=1;shadow=0;dashed=0;align=center;arcSize=4;whiteSpace=wrap;html=1;" vertex="1" parent="1">
          <mxGeometry x="20" y="330" width="160" height="120" as="geometry" />
        </mxCell>
        <mxCell id="KHuX0e-AmjDHZb3JDBsN-21" style="edgeStyle=orthogonalEdgeStyle;rounded=0;orthogonalLoop=1;jettySize=auto;html=1;exitX=1;exitY=0.5;exitDx=0;exitDy=0;entryX=0;entryY=0.5;entryDx=0;entryDy=0;" edge="1" parent="1" source="KHuX0e-AmjDHZb3JDBsN-14" target="KHuX0e-AmjDHZb3JDBsN-20">
          <mxGeometry relative="1" as="geometry" />
        </mxCell>
        <mxCell id="KHuX0e-AmjDHZb3JDBsN-14" value="Utilizar" style="shape=rhombus;double=1;perimeter=rhombusPerimeter;whiteSpace=wrap;html=1;align=center;" vertex="1" parent="1">
          <mxGeometry x="250" y="360" width="120" height="60" as="geometry" />
        </mxCell>
        <mxCell id="KHuX0e-AmjDHZb3JDBsN-16" value="1" style="text;html=1;align=center;verticalAlign=middle;resizable=0;points=[];autosize=1;strokeColor=none;fillColor=none;" vertex="1" parent="1">
          <mxGeometry x="95" y="128" width="30" height="30" as="geometry" />
        </mxCell>
        <mxCell id="KHuX0e-AmjDHZb3JDBsN-17" value="n" style="text;html=1;align=center;verticalAlign=middle;resizable=0;points=[];autosize=1;strokeColor=none;fillColor=none;" vertex="1" parent="1">
          <mxGeometry x="95" y="288" width="30" height="30" as="geometry" />
        </mxCell>
        <mxCell id="KHuX0e-AmjDHZb3JDBsN-19" value="n" style="text;html=1;align=center;verticalAlign=middle;resizable=0;points=[];autosize=1;strokeColor=none;fillColor=none;" vertex="1" parent="1">
          <mxGeometry x="195" y="366" width="30" height="30" as="geometry" />
        </mxCell>
        <mxCell id="KHuX0e-AmjDHZb3JDBsN-22" style="edgeStyle=orthogonalEdgeStyle;rounded=0;orthogonalLoop=1;jettySize=auto;html=1;exitX=1;exitY=0.5;exitDx=0;exitDy=0;" edge="1" parent="1" source="KHuX0e-AmjDHZb3JDBsN-20">
          <mxGeometry relative="1" as="geometry">
            <mxPoint x="660" y="390" as="targetPoint" />
          </mxGeometry>
        </mxCell>
        <mxCell id="KHuX0e-AmjDHZb3JDBsN-20" value="Fornecedores" style="swimlane;childLayout=stackLayout;horizontal=1;startSize=50;horizontalStack=0;rounded=1;fontSize=14;fontStyle=0;strokeWidth=2;resizeParent=0;resizeLast=1;shadow=0;dashed=0;align=center;arcSize=4;whiteSpace=wrap;html=1;" vertex="1" parent="1">
          <mxGeometry x="425" y="330" width="160" height="120" as="geometry" />
        </mxCell>
        <mxCell id="KHuX0e-AmjDHZb3JDBsN-25" style="edgeStyle=orthogonalEdgeStyle;rounded=0;orthogonalLoop=1;jettySize=auto;html=1;exitX=0.5;exitY=1;exitDx=0;exitDy=0;" edge="1" parent="1" source="KHuX0e-AmjDHZb3JDBsN-23" target="KHuX0e-AmjDHZb3JDBsN-24">
          <mxGeometry relative="1" as="geometry" />
        </mxCell>
        <mxCell id="KHuX0e-AmjDHZb3JDBsN-23" value="Fornecer" style="shape=rhombus;double=1;perimeter=rhombusPerimeter;whiteSpace=wrap;html=1;align=center;" vertex="1" parent="1">
          <mxGeometry x="660" y="360" width="120" height="60" as="geometry" />
        </mxCell>
        <mxCell id="KHuX0e-AmjDHZb3JDBsN-27" style="edgeStyle=orthogonalEdgeStyle;rounded=0;orthogonalLoop=1;jettySize=auto;html=1;exitX=0;exitY=0.5;exitDx=0;exitDy=0;" edge="1" parent="1" source="KHuX0e-AmjDHZb3JDBsN-24" target="KHuX0e-AmjDHZb3JDBsN-26">
          <mxGeometry relative="1" as="geometry" />
        </mxCell>
        <mxCell id="KHuX0e-AmjDHZb3JDBsN-24" value="Peças" style="swimlane;childLayout=stackLayout;horizontal=1;startSize=50;horizontalStack=0;rounded=1;fontSize=14;fontStyle=0;strokeWidth=2;resizeParent=0;resizeLast=1;shadow=0;dashed=0;align=center;arcSize=4;whiteSpace=wrap;html=1;" vertex="1" parent="1">
          <mxGeometry x="640" y="500" width="160" height="120" as="geometry" />
        </mxCell>
        <mxCell id="KHuX0e-AmjDHZb3JDBsN-29" style="edgeStyle=orthogonalEdgeStyle;rounded=0;orthogonalLoop=1;jettySize=auto;html=1;exitX=0;exitY=0.5;exitDx=0;exitDy=0;entryX=1;entryY=0.5;entryDx=0;entryDy=0;" edge="1" parent="1" source="KHuX0e-AmjDHZb3JDBsN-26" target="KHuX0e-AmjDHZb3JDBsN-28">
          <mxGeometry relative="1" as="geometry" />
        </mxCell>
        <mxCell id="KHuX0e-AmjDHZb3JDBsN-26" value="Conter" style="shape=rhombus;double=1;perimeter=rhombusPerimeter;whiteSpace=wrap;html=1;align=center;" vertex="1" parent="1">
          <mxGeometry x="445" y="530" width="120" height="60" as="geometry" />
        </mxCell>
        <mxCell id="KHuX0e-AmjDHZb3JDBsN-28" value="Depósito" style="swimlane;childLayout=stackLayout;horizontal=1;startSize=50;horizontalStack=0;rounded=1;fontSize=14;fontStyle=0;strokeWidth=2;resizeParent=0;resizeLast=1;shadow=0;dashed=0;align=center;arcSize=4;whiteSpace=wrap;html=1;" vertex="1" parent="1">
          <mxGeometry x="225" y="500" width="160" height="120" as="geometry" />
        </mxCell>
        <mxCell id="KHuX0e-AmjDHZb3JDBsN-30" value="n" style="text;html=1;align=center;verticalAlign=middle;resizable=0;points=[];autosize=1;strokeColor=none;fillColor=none;" vertex="1" parent="1">
          <mxGeometry x="375" y="366" width="30" height="30" as="geometry" />
        </mxCell>
        <mxCell id="KHuX0e-AmjDHZb3JDBsN-31" value="&lt;div&gt;n&lt;/div&gt;" style="text;html=1;align=center;verticalAlign=middle;resizable=0;points=[];autosize=1;strokeColor=none;fillColor=none;fontStyle=0" vertex="1" parent="1">
          <mxGeometry x="605" y="367" width="30" height="30" as="geometry" />
        </mxCell>
        <mxCell id="KHuX0e-AmjDHZb3JDBsN-32" value="&lt;div&gt;n&lt;/div&gt;" style="text;html=1;align=center;verticalAlign=middle;resizable=0;points=[];autosize=1;strokeColor=none;fillColor=none;" vertex="1" parent="1">
          <mxGeometry x="720" y="440" width="30" height="30" as="geometry" />
        </mxCell>
        <mxCell id="KHuX0e-AmjDHZb3JDBsN-33" value="&lt;div&gt;n&lt;/div&gt;" style="text;html=1;align=center;verticalAlign=middle;resizable=0;points=[];autosize=1;strokeColor=none;fillColor=none;" vertex="1" parent="1">
          <mxGeometry x="590" y="540" width="30" height="30" as="geometry" />
        </mxCell>
        <mxCell id="KHuX0e-AmjDHZb3JDBsN-34" value="1" style="text;html=1;align=center;verticalAlign=middle;resizable=0;points=[];autosize=1;strokeColor=none;fillColor=none;" vertex="1" parent="1">
          <mxGeometry x="405" y="538" width="30" height="30" as="geometry" />
        </mxCell>
      </root>
    </mxGraphModel>
  </diagram>
</mxfile>
